<?xml version="1.0" encoding="UTF-8"?>
<svg id="Layer_1" data-name="Layer 1" xmlns="http://www.w3.org/2000/svg" width="72" height="72" xmlns:xlink="http://www.w3.org/1999/xlink" viewBox="0 0 72 72">
  <defs>
    <style>
      .cls-1 {
        fill: #fdfdfd;
        stroke: #000;
        stroke-miterlimit: 10;
      }

      .cls-2 {
        fill: url(#linear-gradient);
        fill-opacity: .3;
        stroke-width: 0px;
      }

      .cls-3 {
        fill: none;
        stroke: url(#linear-gradient-2);
      }
    </style>
    <linearGradient id="linear-gradient" x1="36" y1="74" x2="36" y2="5.29" gradientTransform="translate(0 74) scale(1 -1)" gradientUnits="userSpaceOnUse">
      <stop offset="0" stop-color="#fff" stop-opacity=".47"/>
      <stop offset="1" stop-color="#fff" stop-opacity=".09"/>
    </linearGradient>
    <linearGradient id="linear-gradient-2" x1="36" y1="74" x2="36" y2="5.29" gradientTransform="translate(0 74) scale(1 -1)" gradientUnits="userSpaceOnUse">
      <stop offset="0" stop-color="#fff" stop-opacity=".25"/>
      <stop offset="1" stop-color="#fff" stop-opacity=".04"/>
    </linearGradient>
  </defs>
  <g id="BG">
    <rect class="cls-2" width="72" height="72" rx="10" ry="10"/>
    <rect class="cls-3" x=".5" y=".5" width="71" height="71" rx="9.5" ry="9.5"/>
  </g>
  <path class="cls-1" d="m55.98,46.31c0-.34-.14-.55-.43-.7-1.61-.79-3.22-1.59-4.83-2.39-2.64-1.31-5.27-2.62-7.91-3.92-1.74-.86-3.48-1.72-5.22-2.59-.13-.07-.27-.13-.42-.21.06-.03.1-.05.14-.07,1.54-.76,3.07-1.52,4.61-2.28,2.05-1.02,4.1-2.03,6.15-3.05,2.5-1.24,5-2.48,7.5-3.72.28-.14.41-.35.41-.66,0-1.2,0-2.41-.01-3.61,0-.3-.2-.43-.47-.29-2.17,1.07-4.34,2.15-6.5,3.23-.1.05-.13.05-.16-.07-.35-1.42-1.11-2.55-2.33-3.36-.9-.6-1.9-.91-2.99-.91-7.39,0-14.79,0-22.18,0-.19,0-.37,0-.56.03-1.25.15-2.31.68-3.19,1.56-1.03,1.04-1.59,2.28-1.57,3.77.01,1.04,0,2.08,0,3.13,0,.17.06.31.17.43.09.1.2.18.33.24.72.35,1.43.71,2.15,1.06,2.16,1.07,4.32,2.14,6.48,3.21.91.45,1.82.9,2.74,1.36-.04.02-.06.04-.09.05-2.14,1.06-4.28,2.12-6.42,3.17-1.55.76-3.09,1.53-4.63,2.3-.14.07-.29.13-.42.23-.16.12-.29.27-.3.48,0,.14,0,.27,0,.41,0,.91,0,1.82,0,2.73,0,.36,0,.72.07,1.08.45,2.32,2.65,4.34,5.31,4.33,7.37-.03,14.73,0,22.1-.01.34,0,.68,0,1.01-.07,1.76-.37,3.05-1.37,3.89-2.96.21-.4.31-.84.46-1.26.03-.08.04-.1.13-.06.72.37,1.45.74,2.17,1.1,1.43.71,2.86,1.41,4.28,2.12.32.16.53.04.53-.32,0-1.18,0-2.36,0-3.53Zm-29.56-15.13c-2.08-1.03-4.16-2.06-6.24-3.09-.04-.02-.09-.03-.08-.09,0-.37-.04-.73.03-1.1.13-.63.68-1.09,1.32-1.09,3.67,0,7.35,0,11.02,0s7.31,0,10.97,0c.77,0,1.37.58,1.4,1.35,0,.28,0,.56,0,.84,0,.07-.03.11-.09.14-2.41,1.19-4.82,2.39-7.23,3.58-1.61.8-3.23,1.6-4.84,2.4-.1.05-.18.06-.29,0-1.99-.99-3.98-1.97-5.97-2.95Zm18.4,14.81c-.11.74-.66,1.2-1.4,1.21-1.12,0-2.24,0-3.36,0h-7.61c-3.64,0-7.28,0-10.91,0-.85,0-1.43-.56-1.44-1.41,0-.25,0-.5,0-.75,0-.06.03-.09.07-.11,1.36-.67,2.72-1.35,4.08-2.02.97-.48,1.95-.97,2.92-1.45,1.74-.86,3.49-1.73,5.23-2.59.08-.04.14-.03.21,0,1.08.53,2.16,1.06,3.24,1.6,2.41,1.19,4.82,2.39,7.23,3.59.55.27,1.1.54,1.65.82.04.02.1.03.09.1-.01.34.04.69-.01,1.03Z"/>
</svg>